<?xml version="1.0" encoding="utf-8"?>
<!-- Generator: Adobe Illustrator 21.0.0, SVG Export Plug-In . SVG Version: 6.00 Build 0)  -->
<svg version="1.1" xmlns="http://www.w3.org/2000/svg" xmlns:xlink="http://www.w3.org/1999/xlink" x="0px" y="0px"
	 viewBox="0 0 411 643" style="enable-background:new 0 0 411 643;" xml:space="preserve">
<style type="text/css">
	.st0{fill:#ED1F24;}
	.st1{fill:none;stroke:#000000;stroke-miterlimit:10;}
	.st2{fill:#F9F906;}
	.st3{fill:#05DB46;}
	.st4{fill:#475DB1;}
	.st5{fill:#06F957;}
	.st6{fill:#E0DA05;}
	.st7{fill:#BC0A28;}
	.st8{fill:#E7122D;}
	.st9{fill:#5172C4;}
	.st10{fill:#DBDDDD;}
	.st11{fill:#6981CC;}
	.st12{fill:#B6B7B7;}
</style>
<g id="Capa_1">
</g>
<g id="Capa_2">
	<path class="st0" d="M391.8,637.3H20.1c-6.6,0-12-5.4-12-12v-607c0-6.6,5.4-12,12-12h371.7c6.6,0,12,5.4,12,12v607
		C403.8,631.9,398.4,637.3,391.8,637.3z"/>
	<path class="st1" d="M403.8,63.2H260l-62,46.5c0,0-20.7,19.4-51.6,19.4s-108.4,0-108.4,0v476.4h365.9"/>
	<polygon class="st2" points="103.9,388.1 69.8,358.1 69.8,418.2 	"/>
	<line class="st1" x1="372.9" y1="63.2" x2="372.9" y2="605.5"/>
	<g>
		<g id="XMLID_1_">
			<g>
				<path class="st3" d="M245.9,36.1c0,0.4,0,0.8-0.1,1.1c-0.6,6-5.7,10.6-11.8,10.6c-4.1,0-7.7-2.1-9.9-5.3
					c0.5,0.1,0.9,0.1,1.4,0.1c6.5,0,11.8-5.3,11.8-11.8c0-2.4-0.7-4.6-1.9-6.5c5.1,0.6,9.1,4.4,10.1,9.4
					C245.8,34.5,245.9,35.2,245.9,36.1C245.9,36,245.9,36.1,245.9,36.1z"/>
				<path class="st4" d="M245.9,36c0-0.8-0.1-1.6-0.2-2.3C245.9,34.4,245.9,35.2,245.9,36z"/>
				<path class="st4" d="M235.5,24.3c5.1,0.6,9.2,4.4,10.2,9.4C244.7,28.8,240.6,25,235.5,24.3C235.5,24.3,235.5,24.3,235.5,24.3z"
					/>
				<path class="st5" d="M234.1,24.2c0.5,0,1,0,1.5,0.1c1.2,1.9,1.9,4.1,1.9,6.5c0,6.5-5.3,11.8-11.8,11.8c-0.5,0-1,0-1.4-0.1
					c2.1,3.2,5.8,5.3,9.9,5.3c6.1,0,11.2-4.7,11.8-10.6c-0.6,6-5.6,10.7-11.8,10.7c-6.5,0-11.8-5.3-11.8-11.8S227.6,24.2,234.1,24.2
					z"/>
				<path class="st6" d="M207.9,36.1c0,0.4,0,0.8-0.1,1.1c-0.6,6-5.6,10.6-11.8,10.6c-4.1,0-7.7-2.1-9.9-5.3
					c0.5,0.1,0.9,0.1,1.4,0.1c6.5,0,11.8-5.3,11.8-11.8c0-2.4-0.7-4.6-1.9-6.5c5.1,0.6,9.1,4.4,10.1,9.4
					C207.8,34.5,207.9,35.2,207.9,36.1C207.9,36,207.9,36.1,207.9,36.1z"/>
				<path class="st4" d="M207.9,36c0-0.8-0.1-1.6-0.2-2.3C207.8,34.4,207.9,35.2,207.9,36z"/>
				<path class="st4" d="M197.5,24.3c5.1,0.6,9.2,4.4,10.2,9.4C206.7,28.8,202.6,25,197.5,24.3C197.5,24.3,197.5,24.3,197.5,24.3z"
					/>
				<path class="st2" d="M196.1,24.2c0.5,0,1,0,1.4,0.1c1.2,1.9,1.9,4.1,1.9,6.5c0,6.5-5.3,11.8-11.8,11.8c-0.5,0-1,0-1.4-0.1
					c2.1,3.2,5.7,5.3,9.9,5.3c6.1,0,11.2-4.7,11.8-10.6c-0.6,6-5.6,10.7-11.8,10.7c-6.5,0-11.8-5.3-11.8-11.8S189.6,24.2,196.1,24.2
					z"/>
				<path class="st7" d="M170.3,36.1c0,0.4,0,0.8-0.1,1.1c-0.6,6-5.6,10.6-11.8,10.6c-4.1,0-7.7-2.1-9.9-5.3
					c0.5,0.1,0.9,0.1,1.4,0.1c6.5,0,11.8-5.3,11.8-11.8c0-2.4-0.7-4.6-1.9-6.5c5.1,0.6,9.1,4.4,10.1,9.4
					C170.2,34.5,170.3,35.2,170.3,36.1C170.3,36,170.3,36.1,170.3,36.1z"/>
				<path class="st4" d="M170.3,36c0-0.8-0.1-1.6-0.2-2.3C170.2,34.4,170.3,35.2,170.3,36z"/>
				<path class="st4" d="M159.9,24.3c5.1,0.6,9.2,4.4,10.2,9.4C169.1,28.8,165,25,159.9,24.3C159.9,24.3,159.9,24.3,159.9,24.3z"/>
				<path class="st8" d="M158.5,24.2c0.5,0,1,0,1.5,0.1c1.2,1.9,1.9,4.1,1.9,6.5c0,6.5-5.3,11.8-11.8,11.8c-0.5,0-1,0-1.4-0.1
					c2.1,3.2,5.7,5.3,9.9,5.3c6.1,0,11.2-4.7,11.8-10.6c-0.6,6-5.6,10.7-11.8,10.7c-6.5,0-11.8-5.3-11.8-11.8S151.9,24.2,158.5,24.2
					z"/>
				<path class="st4" d="M127.3,64.6c0-0.5,0-0.9,0-1.4C127.3,63.7,127.3,64.2,127.3,64.6z"/>
				<path class="st4" d="M127.3,63.1c0-0.3,0-0.5-0.1-0.8C127.3,62.5,127.3,62.8,127.3,63.1z"/>
				<path class="st4" d="M127.1,60.6c0.1,0.5,0.1,1.1,0.1,1.6C127.2,61.7,127.2,61.1,127.1,60.6z"/>
				<path class="st4" d="M126.7,57.6c0.2,1,0.3,2,0.4,3C127,59.6,126.9,58.6,126.7,57.6z"/>
				<path class="st4" d="M126.7,57.6c-0.1-0.3-0.1-0.7-0.2-1C126.6,56.9,126.7,57.2,126.7,57.6z"/>
				<path class="st4" d="M126.1,54.6c0.2,0.7,0.3,1.3,0.5,2C126.4,55.9,126.2,55.3,126.1,54.6z"/>
				<path class="st9" d="M116.1,64.7c0,1-0.1,2-0.2,2.9C114.5,82.4,102,94,86.8,94c-7.4,0-14.2-2.8-19.3-7.3
					c3.4,1.4,7.1,2.1,10.9,2.1c16.2,0,29.3-13.1,29.3-29.3c0-8.7-3.8-16.5-9.8-21.9c9.8,4,17,13.1,18.1,24c0,0.1,0,0.2,0,0.3
					c0.1,0.4,0.1,0.9,0.1,1.3C116.1,63.7,116.1,64.2,116.1,64.7C116.1,64.7,116.1,64.7,116.1,64.7z"/>
				<path class="st4" d="M116.1,64.7c0-0.5,0-1,0-1.5C116.1,63.7,116.1,64.2,116.1,64.7z"/>
				<path class="st4" d="M116.1,63.2c0-0.4,0-0.9-0.1-1.3C116.1,62.3,116.1,62.8,116.1,63.2z"/>
				<path class="st4" d="M97.8,37.5c9.9,4,17.1,13.1,18.2,24.1C114.8,50.7,107.7,41.6,97.8,37.5C97.8,37.5,97.8,37.5,97.8,37.5z"/>
				<path class="st10" d="M116.1,64.7C116.1,64.7,116.1,64.7,116.1,64.7c0-0.5,0-1,0-1.5c0-0.5,0-0.9-0.1-1.3c0-0.1,0-0.2,0-0.3
					c-1.1-11-8.3-20.2-18.2-24.1c0,0,0.1,0.1,0.1,0.1c-3.4-1.4-7.1-2.1-11-2.1c-16.2,0-29.3,13.1-29.3,29.3S70.7,94,86.8,94
					c15.2,0,27.7-11.6,29.2-26.4C116.1,66.7,116.1,65.7,116.1,64.7z M86.8,105.2c-22.4,0-40.5-18.1-40.5-40.5
					c0-22.4,18.1-40.5,40.5-40.5c6.1,0,11.8,1.3,17,3.7c9.2,7.4,15.1,18.8,15.1,31.5c0,22.4-18.1,40.5-40.5,40.5
					c-6,0-11.7-1.3-16.8-3.7C68.5,101.9,77.3,105.2,86.8,105.2c21-0.1,38.2-16,40.3-36.4C125.1,89.3,107.8,105.2,86.8,105.2z"/>
				<path class="st4" d="M103.7,27.9c11,5,19.3,14.8,22.4,26.8C123,42.8,114.7,33,103.8,28C103.8,27.9,103.7,27.9,103.7,27.9z"/>
				<path class="st11" d="M86.8,94c-16.2,0-29.3-13.1-29.3-29.3s13.1-29.3,29.3-29.3c3.9,0,7.6,0.8,11,2.1c6,5.4,9.8,13.2,9.8,21.9
					c0,16.2-13.1,29.3-29.3,29.3c-3.9,0-7.5-0.8-10.9-2.1C72.7,91.2,79.4,94,86.8,94C102,94,114.5,82.4,116,67.7
					C114.5,82.5,102,94,86.8,94z"/>
				<path class="st12" d="M86.8,105.2c-9.6,0-18.3-3.3-25.3-8.9c5.1,2.4,10.8,3.7,16.8,3.7c22.4,0,40.5-18.1,40.5-40.5
					c0-12.8-5.9-24.1-15.1-31.5c10.9,5,19.2,14.8,22.3,26.7c0.2,0.7,0.3,1.3,0.5,2c0.1,0.3,0.1,0.7,0.2,1c0.2,1,0.3,2,0.4,3
					c0.1,0.5,0.1,1.1,0.1,1.6c0,0.3,0,0.5,0.1,0.8c0,0,0,0.1,0,0.1c0,0.5,0,0.9,0,1.4c0,0,0,0.1,0,0.1c0,1.4-0.1,2.7-0.2,4.1
					C125.1,89.2,107.8,105.2,86.8,105.2z"/>
			</g>
			<g>
			</g>
		</g>
	</g>
	<g>
		<path d="M391.4,4.3H19.6c-7.7,0-14,6.3-14,14v607c0,7.7,6.3,14,14,14h371.7c7.7,0,14-6.3,14-14v-607
			C405.4,10.6,399.1,4.3,391.4,4.3z M391.4,635.3H19.6c-5.5,0-10-4.5-10-10v-607c0-5.5,4.5-10,10-10h371.7c5.5,0,10,4.5,10,10v42.9
			H258.9l-62.5,46.9l-0.2,0.1c-0.2,0.2-20.4,18.8-50.3,18.8H35.5v480.4h365.9v17.9C401.4,630.8,396.9,635.3,391.4,635.3z
			 M39.5,603.5V131.1h106.4c30.7,0,51.2-18.3,52.9-19.8l61.4-46h110.3v538.2H39.5z M374.5,65.2h26.9v538.2h-26.9V65.2z"/>
		<path d="M67.4,353.7v68.9l39.1-34.5L67.4,353.7z M71.4,362.6l29,25.6l-29,25.6V362.6z"/>
		<path d="M89.1,565.4v22.5h233v-22.5H89.1z M318.1,583.9h-225v-14.5h225V583.9z"/>
		<path d="M86.4,107.2c23.4,0,42.5-19.1,42.5-42.5s-19.1-42.5-42.5-42.5S43.9,41.2,43.9,64.7S63,107.2,86.4,107.2z M86.4,26.2
			c21.2,0,38.5,17.3,38.5,38.5s-17.3,38.5-38.5,38.5S47.9,85.9,47.9,64.7S65.2,26.2,86.4,26.2z"/>
		<path d="M86.4,96c17.3,0,31.3-14,31.3-31.3s-14-31.3-31.3-31.3s-31.3,14-31.3,31.3S69.1,96,86.4,96z M86.4,37.4
			c15.1,0,27.3,12.2,27.3,27.3S101.4,92,86.4,92S59.1,79.7,59.1,64.7S71.3,37.4,86.4,37.4z"/>
		<path d="M158,49.9c7.6,0,13.8-6.2,13.8-13.8s-6.2-13.8-13.8-13.8s-13.8,6.2-13.8,13.8S150.4,49.9,158,49.9z M158,26.2
			c5.4,0,9.8,4.4,9.8,9.8s-4.4,9.8-9.8,9.8s-9.8-4.4-9.8-9.8S152.6,26.2,158,26.2z"/>
		<path d="M195.6,49.9c7.6,0,13.8-6.2,13.8-13.8s-6.2-13.8-13.8-13.8s-13.8,6.2-13.8,13.8S188,49.9,195.6,49.9z M195.6,26.2
			c5.4,0,9.8,4.4,9.8,9.8s-4.4,9.8-9.8,9.8s-9.8-4.4-9.8-9.8S190.2,26.2,195.6,26.2z"/>
		<path d="M233.7,49.9c7.6,0,13.8-6.2,13.8-13.8s-6.2-13.8-13.8-13.8s-13.8,6.2-13.8,13.8S226,49.9,233.7,49.9z M233.7,26.2
			c5.4,0,9.8,4.4,9.8,9.8s-4.4,9.8-9.8,9.8s-9.8-4.4-9.8-9.8S228.2,26.2,233.7,26.2z"/>
	</g>
</g>
</svg>
